<svg data-v-fde0c5aa="" xmlns="http://www.w3.org/2000/svg" viewBox="0 0 300 300" class="font"><!----><defs data-v-fde0c5aa=""><linearGradient data-v-fde0c5aa="" gradientTransform="rotate(25)" id="fd5095a8-a1c1-401a-91fe-dfeff3fadcc2" x1="0%" y1="0%" x2="100%" y2="0%"><stop data-v-fde0c5aa="" offset="0%" stop-color="#574851" stop-opacity="1"></stop><stop data-v-fde0c5aa="" offset="100%" stop-color="#95A8B1" stop-opacity="1"></stop></linearGradient></defs><rect data-v-fde0c5aa="" fill="url(#fd5095a8-a1c1-401a-91fe-dfeff3fadcc2)" x="0" y="0" width="300px" height="300px" class="logo-background-square"></rect><defs data-v-fde0c5aa=""><!----></defs><g data-v-fde0c5aa="" id="d467019b-3d2f-4b72-8ddd-38939eaa83b3" fill="#ffffff" transform="matrix(1.577574983097708,0,0,1.577574983097708,38.634675185966245,136.93767918508576)"><path d="M7.14 12.81C7.25 13.12 7.55 13.30 7.85 13.30C7.95 13.30 8.05 13.29 8.12 13.26C8.53 13.10 8.72 12.66 8.58 12.25L5.49 4.00C5.36 3.70 5.07 3.50 4.75 3.51C4.44 3.50 4.13 3.70 4.00 4.00L0.91 12.25C0.77 12.66 0.97 13.10 1.37 13.26C1.46 13.29 1.54 13.30 1.64 13.30C1.95 13.30 2.24 13.12 2.37 12.81L3.05 10.99L6.45 10.99L7.14 12.81ZM3.61 9.45L4.75 6.44L5.88 9.45L3.61 9.45ZM11.12 6.31C10.70 6.31 10.36 6.64 10.36 7.08L10.36 12.54C10.36 12.96 10.70 13.30 11.12 13.30C11.55 13.30 11.87 12.96 11.87 12.54L11.87 7.08C11.87 6.64 11.55 6.31 11.12 6.31ZM11.87 4.26C11.87 3.84 11.55 3.50 11.12 3.50C10.70 3.50 10.36 3.84 10.36 4.26L10.36 4.55C10.36 4.97 10.70 5.32 11.12 5.32C11.55 5.32 11.87 4.97 11.87 4.55L11.87 4.26ZM17.85 6.31C17.15 6.30 16.55 6.55 16.09 6.86C15.99 6.93 15.88 7.04 15.79 7.14L15.79 7.04C15.79 6.64 15.44 6.31 15.02 6.31C14.62 6.31 14.28 6.64 14.28 7.04L14.28 12.56C14.28 12.96 14.62 13.30 15.02 13.30C15.44 13.30 15.79 12.96 15.79 12.56L15.79 9.90C15.86 9.70 16.03 9.17 16.37 8.72C16.53 8.46 16.74 8.22 17.01 8.05C17.25 7.87 17.53 7.78 17.85 7.78C18.27 7.78 18.59 7.43 18.59 7.04C18.59 6.64 18.27 6.31 17.85 6.31ZM31.54 4.27C31.54 3.84 31.19 3.50 30.77 3.50L24.79 3.50C24.36 3.50 24.02 3.84 24.02 4.27C24.02 4.69 24.36 5.05 24.79 5.05L27.01 5.05L27.01 12.53C27.01 12.96 27.36 13.30 27.78 13.30C28.21 13.30 28.55 12.96 28.55 12.53L28.55 5.05L30.77 5.05C31.19 5.05 31.54 4.69 31.54 4.27ZM35.87 6.31C35.17 6.30 34.57 6.55 34.10 6.86C34.01 6.93 33.89 7.04 33.81 7.14L33.81 7.04C33.81 6.64 33.46 6.31 33.04 6.31C32.63 6.31 32.30 6.64 32.30 7.04L32.30 12.56C32.30 12.96 32.63 13.30 33.04 13.30C33.46 13.30 33.81 12.96 33.81 12.56L33.81 9.90C33.88 9.70 34.05 9.17 34.38 8.72C34.55 8.46 34.76 8.22 35.03 8.05C35.27 7.87 35.55 7.78 35.87 7.78C36.29 7.78 36.61 7.43 36.61 7.04C36.61 6.64 36.29 6.31 35.87 6.31ZM44.02 7.06C44.02 6.64 43.68 6.30 43.27 6.30C42.91 6.30 42.63 6.57 42.55 6.92C42.01 6.54 41.38 6.30 40.68 6.30C39.73 6.30 38.91 6.71 38.30 7.35C37.70 7.98 37.35 8.85 37.35 9.81C37.35 10.77 37.70 11.63 38.30 12.28C38.91 12.91 39.73 13.30 40.68 13.30C40.68 13.30 40.68 13.30 40.68 13.30C41.38 13.30 42.01 13.08 42.55 12.70C42.63 13.03 42.91 13.30 43.27 13.30C43.68 13.30 44.02 12.96 44.02 12.56L44.02 9.81C44.02 9.81 44.02 9.81 44.02 9.81C44.02 9.81 44.02 9.81 44.02 9.81L44.02 7.06ZM41.99 11.26C41.65 11.61 41.17 11.80 40.68 11.80C40.18 11.80 39.70 11.61 39.38 11.26C39.05 10.89 38.85 10.39 38.85 9.81C38.85 9.23 39.05 8.72 39.38 8.37C39.70 7.99 40.18 7.80 40.68 7.80C41.17 7.80 41.65 7.99 41.99 8.37C42.32 8.72 42.53 9.23 42.53 9.81C42.53 10.39 42.32 10.89 41.99 11.26ZM49.18 5.12C49.20 5.11 49.21 5.10 49.27 5.08C49.32 5.05 49.45 5.04 49.63 5.04C50.05 5.04 50.40 4.69 50.40 4.26C50.40 3.84 50.05 3.49 49.63 3.49C49.34 3.49 49.07 3.51 48.79 3.60C48.37 3.72 47.98 4.05 47.78 4.47C47.57 4.87 47.52 5.32 47.52 5.84L47.52 6.03L47.15 6.03C46.72 6.03 46.37 6.37 46.37 6.80C46.37 7.22 46.72 7.57 47.15 7.57L47.52 7.57L47.52 12.52C47.52 12.94 47.85 13.29 48.29 13.29C48.72 13.29 49.06 12.94 49.06 12.52L49.06 7.57L49.48 7.57C49.90 7.57 50.25 7.22 50.25 6.80C50.25 6.37 49.90 6.03 49.48 6.03L49.06 6.03L49.06 5.84C49.06 5.32 49.17 5.12 49.18 5.12ZM54.25 5.12C54.26 5.11 54.28 5.10 54.33 5.08C54.39 5.05 54.52 5.04 54.70 5.04C55.12 5.04 55.47 4.69 55.47 4.26C55.47 3.84 55.12 3.49 54.70 3.49C54.40 3.49 54.14 3.51 53.86 3.60C53.44 3.72 53.05 4.05 52.85 4.47C52.64 4.87 52.58 5.32 52.58 5.84L52.58 6.03L52.22 6.03C51.79 6.03 51.44 6.37 51.44 6.80C51.44 7.22 51.79 7.57 52.22 7.57L52.58 7.57L52.58 12.52C52.58 12.94 52.92 13.29 53.35 13.29C53.79 13.29 54.12 12.94 54.12 12.52L54.12 7.57L54.54 7.57C54.96 7.57 55.31 7.22 55.31 6.80C55.31 6.37 54.96 6.03 54.54 6.03L54.12 6.03L54.12 5.84C54.12 5.32 54.24 5.12 54.25 5.12ZM57.67 6.31C57.25 6.31 56.91 6.64 56.91 7.08L56.91 12.54C56.91 12.96 57.25 13.30 57.67 13.30C58.10 13.30 58.42 12.96 58.42 12.54L58.42 7.08C58.42 6.64 58.10 6.31 57.67 6.31ZM58.42 4.26C58.42 3.84 58.10 3.50 57.67 3.50C57.25 3.50 56.91 3.84 56.91 4.26L56.91 4.55C56.91 4.97 57.25 5.32 57.67 5.32C58.10 5.32 58.42 4.97 58.42 4.55L58.42 4.26ZM63.90 13.30C63.90 13.30 63.90 13.30 63.90 13.30C64.74 13.30 65.52 12.99 66.12 12.56C66.44 12.28 66.50 11.83 66.28 11.52C66.00 11.19 65.53 11.13 65.23 11.37C64.86 11.63 64.40 11.82 63.90 11.82C62.76 11.82 61.82 10.89 61.82 9.81C61.82 8.74 62.76 7.80 63.90 7.80C64.41 7.80 64.86 7.98 65.23 8.25C65.55 8.50 66.00 8.44 66.28 8.11C66.50 7.80 66.44 7.32 66.12 7.07C65.52 6.61 64.74 6.30 63.90 6.30C61.96 6.31 60.34 7.87 60.34 9.81C60.34 11.73 61.96 13.30 63.90 13.30ZM77.88 13.30C79.11 13.30 80.23 12.89 81.12 12.21C81.45 11.94 81.51 11.44 81.26 11.09C80.98 10.75 80.46 10.70 80.14 10.93C79.51 11.44 78.75 11.70 77.88 11.70C76.92 11.70 76.02 11.31 75.36 10.70C74.73 10.08 74.34 9.21 74.34 8.26C74.34 7.31 74.73 6.47 75.36 5.82C76.02 5.21 76.92 4.82 77.88 4.82C78.75 4.82 79.52 5.08 80.14 5.59C80.46 5.84 80.98 5.78 81.26 5.43C81.51 5.08 81.45 4.59 81.12 4.31C80.23 3.63 79.11 3.22 77.88 3.22C75.08 3.23 72.76 5.49 72.74 8.26C72.76 11.05 75.08 13.30 77.88 13.30ZM86.73 13.34C86.73 13.34 86.73 13.34 86.73 13.34C87.65 13.34 88.49 12.94 89.07 12.28C89.70 11.66 90.05 10.79 90.05 9.81L90.05 9.81C90.05 8.86 89.70 8.04 89.07 7.36C88.49 6.71 87.65 6.30 86.73 6.30C85.76 6.30 84.95 6.71 84.32 7.36C83.72 8.04 83.36 8.86 83.36 9.81C83.36 10.79 83.72 11.66 84.32 12.28C84.95 12.94 85.76 13.34 86.73 13.34ZM85.39 8.36C85.74 8.05 86.20 7.83 86.73 7.83C87.22 7.83 87.67 8.05 88.02 8.36C88.37 8.74 88.56 9.24 88.56 9.81L88.56 9.81C88.56 10.42 88.37 10.91 88.02 11.30C87.67 11.63 87.22 11.82 86.73 11.82C86.20 11.82 85.74 11.63 85.39 11.30C85.06 10.91 84.88 10.42 84.88 9.81C84.88 9.24 85.06 8.74 85.39 8.36ZM95.34 6.30C94.79 6.30 94.28 6.47 93.86 6.73C93.73 6.47 93.46 6.30 93.17 6.30C92.75 6.30 92.43 6.64 92.43 7.04L92.43 9.21C92.43 9.21 92.43 9.21 92.43 9.21L92.43 12.56C92.43 12.96 92.75 13.30 93.17 13.30C93.53 13.30 93.84 13.03 93.91 12.70C93.94 12.64 93.94 12.60 93.94 12.56L93.94 12.56L93.94 9.21C93.94 8.43 94.56 7.80 95.34 7.80C96.14 7.80 96.80 8.43 96.80 9.21L96.80 12.56C96.80 12.96 97.15 13.30 97.54 13.30C97.94 13.30 98.27 12.96 98.27 12.56L98.27 9.21C98.27 7.63 96.96 6.30 95.34 6.30ZM103.38 6.30L103.03 6.30L103.03 4.27C103.03 3.84 102.69 3.50 102.26 3.50C101.82 3.50 101.47 3.84 101.47 4.27L101.47 4.27L101.47 6.30L101.07 6.30C100.63 6.30 100.30 6.64 100.30 7.07C100.30 7.49 100.63 7.84 101.07 7.84L101.47 7.84L101.47 11.75C101.47 12.60 102.17 13.30 103.03 13.30C103.46 13.30 103.80 12.96 103.80 12.53C103.80 12.10 103.46 11.75 103.03 11.75C103.03 11.75 103.03 11.75 103.03 11.75L103.03 7.84L103.38 7.84C103.80 7.84 104.16 7.49 104.16 7.07C104.16 6.64 103.80 6.30 103.38 6.30ZM109.20 6.31C108.50 6.30 107.90 6.55 107.44 6.86C107.34 6.93 107.23 7.04 107.14 7.14L107.14 7.04C107.14 6.64 106.79 6.31 106.37 6.31C105.97 6.31 105.63 6.64 105.63 7.04L105.63 12.56C105.63 12.96 105.97 13.30 106.37 13.30C106.79 13.30 107.14 12.96 107.14 12.56L107.14 9.90C107.21 9.70 107.38 9.17 107.72 8.72C107.88 8.46 108.09 8.22 108.36 8.05C108.60 7.87 108.88 7.78 109.20 7.78C109.62 7.78 109.94 7.43 109.94 7.04C109.94 6.64 109.62 6.31 109.20 6.31ZM114.48 13.34C114.48 13.34 114.48 13.34 114.48 13.34C115.40 13.34 116.24 12.94 116.82 12.28C117.45 11.66 117.80 10.79 117.80 9.81L117.80 9.81C117.80 8.86 117.45 8.04 116.82 7.36C116.24 6.71 115.40 6.30 114.48 6.30C113.51 6.30 112.70 6.71 112.07 7.36C111.47 8.04 111.10 8.86 111.10 9.81C111.10 10.79 111.47 11.66 112.07 12.28C112.70 12.94 113.51 13.34 114.48 13.34ZM113.13 8.36C113.48 8.05 113.95 7.83 114.48 7.83C114.97 7.83 115.42 8.05 115.77 8.36C116.12 8.74 116.31 9.24 116.31 9.81L116.31 9.81C116.31 10.42 116.12 10.91 115.77 11.30C115.42 11.63 114.97 11.82 114.48 11.82C113.95 11.82 113.48 11.63 113.13 11.30C112.81 10.91 112.63 10.42 112.63 9.81C112.63 9.24 112.81 8.74 113.13 8.36ZM120.27 4.27L120.27 12.53C120.27 12.95 120.62 13.30 121.04 13.30C121.48 13.30 121.83 12.95 121.83 12.53L121.83 4.27C121.83 3.85 121.48 3.50 121.04 3.50C120.62 3.50 120.27 3.85 120.27 4.27ZM123.76 4.27L123.76 12.53C123.76 12.95 124.11 13.30 124.53 13.30C124.96 13.30 125.31 12.95 125.31 12.53L125.31 4.27C125.31 3.85 124.96 3.50 124.53 3.50C124.11 3.50 123.76 3.85 123.76 4.27ZM130.70 13.30C131.70 13.30 132.52 13.01 133.21 12.38C133.53 12.08 133.39 11.66 133.21 11.47C133.03 11.24 132.45 11.20 132.16 11.51C131.81 11.77 131.21 11.90 130.70 11.86C130.21 11.82 129.65 11.56 129.36 11.23C129.11 10.99 128.95 10.63 128.88 10.30L133.34 10.30C133.73 10.30 134.02 10.08 134.06 9.74C134.08 9.72 134.08 9.65 134.08 9.62C134.08 9.62 134.08 9.62 134.08 9.62C134.08 9.62 134.08 9.62 134.08 9.62C134.08 9.59 134.08 9.56 134.08 9.55C133.97 7.66 132.52 6.30 130.70 6.30C128.79 6.30 127.30 7.90 127.29 9.80C127.30 11.70 128.79 13.29 130.70 13.30ZM130.70 7.63C131.92 7.73 132.64 8.55 132.78 9.11L128.81 9.11C128.93 8.54 129.51 7.69 130.70 7.63ZM139.58 6.31C138.88 6.30 138.28 6.55 137.82 6.86C137.72 6.93 137.61 7.04 137.52 7.14L137.52 7.04C137.52 6.64 137.17 6.31 136.75 6.31C136.35 6.31 136.01 6.64 136.01 7.04L136.01 12.56C136.01 12.96 136.35 13.30 136.75 13.30C137.17 13.30 137.52 12.96 137.52 12.56L137.52 9.90C137.59 9.70 137.76 9.17 138.10 8.72C138.26 8.46 138.47 8.22 138.74 8.05C138.98 7.87 139.26 7.78 139.58 7.78C140 7.78 140.32 7.43 140.32 7.04C140.32 6.64 140 6.31 139.58 6.31Z"></path></g><!----><!----></svg>