<svg data-v-423bf9ae="" xmlns="http://www.w3.org/2000/svg" viewBox="0 0 770 112" class="iconLeft"><!----><!----><!----><g data-v-423bf9ae="" id="3b84cb55-3834-4809-baf7-8ed72ba64bcf" fill="white" transform="matrix(5.714285714285714,0,0,5.714285714285714,124.62111757482802,24.355554312467575)"><path d="M2.45 10.50L4.38 0.42L3.05 0.42L1.12 10.50ZM5.67 10.50L6.41 6.54C6.72 4.94 7.69 4.07 8.83 4.07C9.93 4.07 10.18 4.83 9.94 6.09L9.10 10.50L10.36 10.50L11.21 6.03C11.54 4.30 11.30 3.01 9.28 3.01C8.27 3.01 7.43 3.37 6.73 4.27L6.93 3.22L5.80 3.22L4.41 10.50ZM13.41 6.86C13.80 4.87 14.92 4.06 16.03 4.06C16.88 4.06 17.70 4.34 17.58 5.50L18.77 5.50C18.97 3.84 17.79 3.01 16.23 3.01C14.21 3.01 12.63 4.45 12.15 6.86C11.69 9.27 12.73 10.71 14.74 10.71C16.31 10.71 17.54 9.83 18.23 8.30L17.07 8.02C16.58 9.17 15.81 9.66 14.95 9.66C13.85 9.66 13.03 8.85 13.41 6.86ZM20.48 10.50L21.22 6.57C21.49 5.15 22.29 4.20 23.49 4.20C23.93 4.20 24.15 4.31 24.39 4.51L24.99 3.40C24.70 3.14 24.33 3.01 23.77 3.01C22.86 3.01 22.15 3.50 21.50 4.48L21.74 3.22L20.61 3.22L19.22 10.50ZM30.95 8.29L29.81 8.04C29.34 9.13 28.41 9.66 27.55 9.66C26.50 9.66 25.65 8.93 25.89 7.18L28.41 7.18C29.90 7.18 31.28 6.72 31.29 5.05C31.29 4.17 30.56 3.01 28.76 3.01C26.74 3.01 25.16 4.45 24.68 6.86C24.22 9.27 25.26 10.71 27.27 10.71C28.85 10.71 30.21 9.91 30.95 8.29ZM28.56 4.06C29.36 4.06 30.10 4.41 30.07 5.10C30.04 5.92 29.48 6.17 28.59 6.17L26.11 6.17C26.63 4.69 27.69 4.06 28.56 4.06ZM32.97 10.50L33.68 6.73C33.94 5.40 34.50 4.07 35.99 4.07C36.85 4.07 37.16 4.69 36.95 5.78L36.05 10.50L37.31 10.50L38.11 6.29C38.33 5.10 39.05 4.07 40.32 4.07C41.40 4.07 41.43 4.96 41.24 5.92L40.38 10.50L41.64 10.50L42.57 5.52C42.90 3.89 42.28 3.01 40.78 3.01C39.87 3.01 38.93 3.39 38.28 4.35C38.15 3.50 37.53 3.01 36.47 3.01C35.50 3.01 34.71 3.36 34.03 4.26L34.23 3.22L33.10 3.22L31.71 10.50ZM49.74 8.29L48.59 8.04C48.13 9.13 47.19 9.66 46.34 9.66C45.29 9.66 44.44 8.93 44.67 7.18L47.19 7.18C48.69 7.18 50.06 6.72 50.08 5.05C50.08 4.17 49.35 3.01 47.54 3.01C45.53 3.01 43.95 4.45 43.47 6.86C43.01 9.27 44.04 10.71 46.06 10.71C47.64 10.71 49 9.91 49.74 8.29ZM47.35 4.06C48.15 4.06 48.89 4.41 48.86 5.10C48.83 5.92 48.27 6.17 47.38 6.17L44.90 6.17C45.42 4.69 46.48 4.06 47.35 4.06ZM51.76 10.50L52.50 6.54C52.81 4.94 53.77 4.07 54.92 4.07C56.01 4.07 56.27 4.83 56.03 6.09L55.19 10.50L56.45 10.50L57.30 6.03C57.62 4.30 57.39 3.01 55.37 3.01C54.36 3.01 53.52 3.37 52.82 4.27L53.02 3.22L51.88 3.22L50.50 10.50ZM61.07 9.44C60.82 9.51 60.61 9.52 60.47 9.52C59.81 9.52 59.91 9.07 60.03 8.44L60.84 4.19L62.09 4.19L62.27 3.22L61.03 3.22L61.50 0.70L60.13 1.30L59.77 3.22L58.73 3.22L58.55 4.19L59.58 4.19L58.77 8.37C58.51 9.80 58.52 10.64 60.05 10.64C60.31 10.64 60.70 10.58 61.01 10.50ZM66.92 9.60C66.89 9.95 66.86 10.30 67.06 10.50L68.33 10.50C68.12 10.23 68.07 9.76 68.22 9.02L68.84 5.82C69.19 3.99 68.50 3.01 66.56 3.01C65.16 3.01 63.76 3.53 63.07 5.21L64.22 5.47C64.64 4.52 65.32 4.02 66.23 4.02C67.20 4.02 67.84 4.44 67.62 5.57L67.56 5.85C67.17 6.02 66.29 6.16 65.51 6.23C63.85 6.38 62.50 7.01 62.19 8.58C61.91 10.07 62.92 10.71 64.26 10.71C65.13 10.71 66.04 10.42 66.92 9.60ZM67.05 8.54C66.57 9.03 65.58 9.70 64.64 9.70C63.97 9.70 63.35 9.45 63.52 8.53C63.71 7.53 64.65 7.36 65.45 7.24C66.18 7.13 67.02 6.97 67.38 6.82ZM70.90 10.50L72.87 0.21L71.50 0.77L69.64 10.50ZM78.85 5.46C79.28 3.12 80.91 1.33 83.01 1.33C84.42 1.33 85.78 1.92 85.51 3.56L86.77 3.56C87.15 1.47 85.55 0.21 83.26 0.21C80.18 0.21 77.99 2.56 77.45 5.46C76.87 8.36 78.29 10.71 81.37 10.71C83.12 10.71 84.95 9.94 85.86 8.93L86.55 5.39L82.28 5.39L82.05 6.57L85.04 6.57L84.67 8.46C84.01 9.21 82.59 9.59 81.62 9.59C79.38 9.59 78.39 7.80 78.85 5.46ZM91.77 9.60C91.74 9.95 91.71 10.30 91.91 10.50L93.18 10.50C92.97 10.23 92.92 9.76 93.07 9.02L93.69 5.82C94.04 3.99 93.35 3.01 91.41 3.01C90.01 3.01 88.61 3.53 87.92 5.21L89.07 5.47C89.49 4.52 90.17 4.02 91.08 4.02C92.05 4.02 92.69 4.44 92.47 5.57L92.41 5.85C92.02 6.02 91.14 6.16 90.36 6.23C88.70 6.38 87.35 7.01 87.04 8.58C86.76 10.07 87.77 10.71 89.11 10.71C89.98 10.71 90.89 10.42 91.77 9.60ZM91.90 8.54C91.42 9.03 90.43 9.70 89.49 9.70C88.82 9.70 88.20 9.45 88.37 8.53C88.56 7.53 89.50 7.36 90.30 7.24C91.03 7.13 91.87 6.97 92.23 6.82ZM95.75 10.50L96.46 6.73C96.71 5.40 97.27 4.07 98.77 4.07C99.62 4.07 99.93 4.69 99.72 5.78L98.83 10.50L100.09 10.50L100.88 6.29C101.11 5.10 101.82 4.07 103.10 4.07C104.17 4.07 104.20 4.96 104.02 5.92L103.15 10.50L104.41 10.50L105.35 5.52C105.67 3.89 105.06 3.01 103.56 3.01C102.65 3.01 101.71 3.39 101.05 4.35C100.93 3.50 100.31 3.01 99.25 3.01C98.28 3.01 97.48 3.36 96.81 4.26L97.01 3.22L95.87 3.22L94.49 10.50ZM112.52 8.29L111.37 8.04C110.91 9.13 109.97 9.66 109.12 9.66C108.07 9.66 107.21 8.93 107.45 7.18L109.97 7.18C111.47 7.18 112.84 6.72 112.85 5.05C112.85 4.17 112.13 3.01 110.32 3.01C108.30 3.01 106.72 4.45 106.25 6.86C105.78 9.27 106.82 10.71 108.84 10.71C110.42 10.71 111.78 9.91 112.52 8.29ZM110.12 4.06C110.92 4.06 111.66 4.41 111.64 5.10C111.61 5.92 111.05 6.17 110.15 6.17L107.67 6.17C108.19 4.69 109.26 4.06 110.12 4.06Z"></path></g><!----><g data-v-423bf9ae="" id="d45f5611-b92b-4ec8-9553-2f0ee1f6ed1b" transform="matrix(1.1111111111111112,0,0,1.1111111111111112,0.48944091796875,0.44444444444444287)" stroke="none" fill="white"><path d="M75.58 24.423V0H40.917v24.423H0V100h75.58V59.083h24.339v-34.66H75.58zm15.633 25.715H67.069v22.673H49.547V50.138h-24.14V32.617h24.14V8.476h17.522v24.142h24.144v17.52z"></path></g><!----></svg>