<svg data-v-423bf9ae="" xmlns="http://www.w3.org/2000/svg" viewBox="0 0 415.060984279201 60" class="font"><!----><!----><!----><g data-v-423bf9ae="" id="e2a18fe8-d32b-45a6-9daa-e72fe7dc2b81" fill="white" transform="matrix(4.573171104014766,0,0,4.573171104014766,-2.8353586683739707,-16.829270206485027)"><path d="M5.46 4.16C2.83 4.16 0.62 6.11 0.62 8.94C0.62 11.77 2.83 13.73 5.46 13.73C6.60 13.73 7.55 13.36 8.18 12.80L8.18 10.95C7.49 11.48 6.73 11.92 5.51 11.92C3.87 11.92 2.56 10.65 2.56 8.94C2.56 7.23 3.87 5.95 5.51 5.95C6.73 5.95 7.37 6.45 8.04 6.96L8.04 5.04C7.41 4.50 6.60 4.16 5.46 4.16ZM12.59 6.44C10.81 6.44 9.38 7.81 9.38 10.12C9.38 12.41 10.81 13.73 12.47 13.73C13.49 13.73 14.27 13.10 14.68 12.36L14.68 13.52L16.42 13.52L16.42 6.62L14.68 6.62L14.68 7.40C14.16 6.82 13.34 6.44 12.59 6.44ZM12.95 8.13C13.62 8.13 14.19 8.48 14.68 9.00L14.68 9.98C14.70 11.22 13.82 11.99 12.91 11.99C11.87 11.99 11.18 11.16 11.18 10.12C11.18 9.08 11.87 8.13 12.95 8.13ZM20.29 13.52L20.29 3.68L18.55 3.68L18.55 13.52ZM28.68 9.87C28.68 7.86 27.47 6.44 25.43 6.44C23.41 6.44 21.93 8.13 21.93 10.14C21.93 12.22 23.60 13.73 25.63 13.73C26.69 13.73 27.43 13.38 27.81 13.10L27.81 11.53C27.38 11.80 26.71 12.15 25.70 12.15C24.65 12.15 23.87 11.54 23.68 10.60L28.68 10.60ZM23.71 9.46C23.91 8.54 24.51 7.96 25.39 7.96C26.18 7.96 26.95 8.46 27.02 9.46ZM34.10 6.44C33.17 6.44 32.43 7.04 32.01 7.60L32.01 6.62L30.27 6.62L30.27 13.52L32.01 13.52L32.01 9.15C32.40 8.60 32.95 8.13 33.56 8.13C34.34 8.13 34.82 8.59 34.82 9.52L34.84 13.52L36.57 13.52L36.57 9.28C36.57 7.40 35.51 6.44 34.10 6.44ZM45.13 13.52L45.13 3.68L43.39 3.68L43.39 7.40C42.88 6.82 42.05 6.44 41.30 6.44C39.53 6.44 38.09 7.81 38.09 10.12C38.09 12.41 39.53 13.73 41.18 13.73C42.21 13.73 42.98 13.10 43.39 12.36L43.39 13.52ZM41.66 8.15C42.33 8.15 42.90 8.48 43.39 9.00L43.39 9.98C43.41 11.22 42.53 11.99 41.62 11.99C40.58 11.99 39.89 11.16 39.89 10.12C39.89 9.08 40.58 8.15 41.66 8.15ZM50.00 6.44C48.22 6.44 46.79 7.81 46.79 10.12C46.79 12.41 48.22 13.73 49.88 13.73C50.90 13.73 51.68 13.10 52.09 12.36L52.09 13.52L53.83 13.52L53.83 6.62L52.09 6.62L52.09 7.40C51.57 6.82 50.75 6.44 50.00 6.44ZM50.35 8.13C51.02 8.13 51.60 8.48 52.09 9.00L52.09 9.98C52.10 11.22 51.23 11.99 50.31 11.99C49.27 11.99 48.59 11.16 48.59 10.12C48.59 9.08 49.27 8.13 50.35 8.13ZM59.64 6.48C58.82 6.48 58.17 7.10 57.70 7.92L57.70 6.62L55.96 6.62L55.96 13.52L57.70 13.52L57.70 9.67C58.11 8.90 58.60 8.31 59.39 8.31C59.80 8.31 60.14 8.44 60.46 8.65L60.46 6.67C60.21 6.55 59.95 6.48 59.64 6.48ZM71.52 11.81L72.21 13.52L74.44 13.52L70.18 4.29L69.23 4.29L64.97 13.52L67.20 13.52L67.89 11.81ZM70.86 10.20L68.56 10.20L69.71 7.40ZM79.60 6.44C78.57 6.44 77.79 7.03 77.38 7.78L77.38 6.62L75.65 6.62L75.65 16.80L77.38 16.80L77.38 12.74C77.90 13.32 78.72 13.73 79.47 13.73C81.25 13.73 82.69 12.32 82.69 10.02C82.69 7.71 81.25 6.44 79.60 6.44ZM79.16 8.18C80.20 8.18 80.88 8.98 80.88 10.02C80.88 11.05 80.20 12.03 79.12 12.03C78.45 12.03 77.88 11.66 77.38 11.14L77.38 10.14C77.37 8.91 78.24 8.18 79.16 8.18ZM88.29 6.44C87.27 6.44 86.49 7.03 86.08 7.78L86.08 6.62L84.34 6.62L84.34 16.80L86.08 16.80L86.08 12.74C86.60 13.32 87.42 13.73 88.17 13.73C89.95 13.73 91.38 12.32 91.38 10.02C91.38 7.71 89.95 6.44 88.29 6.44ZM87.86 8.18C88.89 8.18 89.58 8.98 89.58 10.02C89.58 11.05 88.89 12.03 87.81 12.03C87.14 12.03 86.57 11.66 86.08 11.14L86.08 10.14C86.06 8.91 86.94 8.18 87.86 8.18Z"></path></g><!----><!----></svg>