<svg data-v-423bf9ae="" xmlns="http://www.w3.org/2000/svg" viewBox="0 0 730.6719323562193 163" class="iconAbove"><!----><!----><!----><g data-v-423bf9ae="" id="09785338-b3ad-41bd-b69c-19d62a3407cb" fill="white" transform="matrix(5.928853821986509,0,0,5.928853821986509,-4.3280687162229015,88.47430570765606)"><path d="M0.73 12.29L7.66 12.29L7.80 8.86L7.57 8.86C7.43 11.56 7.04 12.07 4.34 12.07L3.21 12.07L3.21 7.66L3.95 7.66C5.31 7.66 5.71 8.13 5.71 9.49L5.95 9.49L5.95 5.64L5.71 5.64C5.71 7 5.31 7.43 3.95 7.43L3.21 7.43L3.21 3.42L4.47 3.42C6.75 3.42 7.24 3.82 7.24 6.10L7.46 6.10L7.46 3.19L0.73 3.19L0.73 3.42L1.75 3.42L1.75 12.07L0.73 12.07ZM12.71 5.85C13.93 5.85 14.39 6.59 14.39 7.13C14.39 7.20 14.34 7.25 14.27 7.25C14.20 7.25 14.15 7.21 14.14 7.13C14.10 6.93 13.89 6.76 13.58 6.76C13.16 6.76 12.91 7.11 12.91 7.52C12.91 7.94 13.27 8.26 13.69 8.26C14.25 8.26 14.66 7.83 14.66 7.27C14.66 6.06 13.69 5.57 12.49 5.57C10.42 5.57 9.45 7 9.45 9.07C9.45 11.06 10.42 12.57 12.40 12.57C13.73 12.57 14.57 11.62 14.84 10.30L14.59 10.28C14.36 11.30 13.78 12.18 12.74 12.18C11.14 12.18 10.81 10.58 10.81 8.99C10.81 7.42 11.14 5.85 12.71 5.85ZM18.91 12.57C20.90 12.57 21.99 11.06 21.99 9.07C21.99 7.08 20.90 5.57 18.91 5.57C16.93 5.57 15.83 7.08 15.83 9.07C15.83 11.06 16.93 12.57 18.91 12.57ZM20.64 9.07C20.64 10.63 20.47 12.33 18.91 12.33C17.36 12.33 17.19 10.63 17.19 9.07C17.19 7.52 17.36 5.81 18.91 5.81C20.47 5.81 20.64 7.52 20.64 9.07ZM26.39 12.08L25.47 12.08L25.47 9.55C25.47 7.95 25.75 5.96 27.34 5.96C28.31 5.96 28.38 7.08 28.38 8.12L28.38 12.08L27.45 12.08L27.45 12.29L30.48 12.29L30.48 12.08L29.55 12.08L29.55 9.55C29.55 7.95 29.83 5.96 31.43 5.96C32.40 5.96 32.47 7.08 32.47 8.12L32.47 12.08L31.54 12.08L31.54 12.29L34.64 12.29L34.64 12.08L33.71 12.08L33.71 8.44C33.71 6.71 33.43 5.57 31.70 5.57C30.76 5.57 29.97 6.17 29.67 7.07L29.58 7.07C29.39 6.13 28.83 5.57 27.61 5.57C26.67 5.57 25.89 6.17 25.58 7.07L25.49 7.07L25.49 5.67C24.82 5.81 24.21 5.85 23.52 5.85L23.23 5.85L23.23 6.06L24.22 6.06L24.22 12.08L23.30 12.08L23.30 12.29L26.39 12.29ZM38.57 12.08L37.65 12.08L37.65 9.55C37.65 7.95 37.93 5.96 39.52 5.96C40.49 5.96 40.56 7.08 40.56 8.12L40.56 12.08L39.63 12.08L39.63 12.29L42.66 12.29L42.66 12.08L41.73 12.08L41.73 9.55C41.73 7.95 42.01 5.96 43.61 5.96C44.58 5.96 44.65 7.08 44.65 8.12L44.65 12.08L43.72 12.08L43.72 12.29L46.82 12.29L46.82 12.08L45.89 12.08L45.89 8.44C45.89 6.71 45.61 5.57 43.88 5.57C42.94 5.57 42.15 6.17 41.85 7.07L41.76 7.07C41.57 6.13 41.01 5.57 39.79 5.57C38.85 5.57 38.07 6.17 37.76 7.07L37.67 7.07L37.67 5.67C37.00 5.81 36.39 5.85 35.70 5.85L35.41 5.85L35.41 6.06L36.40 6.06L36.40 12.08L35.48 12.08L35.48 12.29L38.57 12.29ZM50.96 5.57C48.92 5.57 47.84 7.03 47.84 9.07C47.84 11.09 48.79 12.57 50.81 12.57C52.23 12.57 53.13 11.62 53.42 10.30L53.17 10.28C52.92 11.30 52.28 12.18 51.13 12.18C49.73 12.18 49.20 11.03 49.20 9.63L49.20 9.23L49.85 9.23C51.58 9.23 53.42 9.09 53.42 7.36C53.42 6.09 52.23 5.57 50.96 5.57ZM49.20 8.97L49.20 8.58C49.20 7.29 49.55 5.81 50.83 5.81C51.72 5.81 52.07 6.48 52.07 7.36C52.07 8.75 51.07 8.97 49.69 8.97ZM59.50 6.64C59.50 6.72 59.43 6.76 59.37 6.76C59.30 6.76 59.26 6.72 59.25 6.64C59.21 6.44 59.00 6.27 58.69 6.27C58.27 6.27 58.02 6.62 58.02 7.03C58.02 7.45 58.38 7.77 58.80 7.77C59.36 7.77 59.77 7.32 59.77 6.78C59.77 6.03 59.28 5.57 58.59 5.57C57.67 5.57 57.15 6.27 56.83 7.13L56.74 7.13L56.74 5.67C56.08 5.81 55.44 5.85 54.77 5.85L54.47 5.85L54.47 6.06L55.47 6.06L55.47 12.08L54.54 12.08L54.54 12.29L57.74 12.29L57.74 12.08L56.71 12.08L56.71 9.48C56.71 8.01 57.13 5.80 58.59 5.80C59.08 5.80 59.50 6.15 59.50 6.64ZM63.71 5.85C64.93 5.85 65.39 6.59 65.39 7.13C65.39 7.20 65.34 7.25 65.27 7.25C65.20 7.25 65.16 7.21 65.14 7.13C65.10 6.93 64.89 6.76 64.58 6.76C64.16 6.76 63.91 7.11 63.91 7.52C63.91 7.94 64.27 8.26 64.69 8.26C65.25 8.26 65.66 7.83 65.66 7.27C65.66 6.06 64.69 5.57 63.49 5.57C61.42 5.57 60.45 7 60.45 9.07C60.45 11.06 61.42 12.57 63.41 12.57C64.74 12.57 65.58 11.62 65.84 10.30L65.59 10.28C65.37 11.30 64.78 12.18 63.74 12.18C62.15 12.18 61.81 10.58 61.81 8.99C61.81 7.42 62.15 5.85 63.71 5.85ZM69.96 5.57C67.91 5.57 66.84 7.03 66.84 9.07C66.84 11.09 67.79 12.57 69.80 12.57C71.23 12.57 72.13 11.62 72.42 10.30L72.17 10.28C71.92 11.30 71.27 12.18 70.13 12.18C68.73 12.18 68.19 11.03 68.19 9.63L68.19 9.23L68.85 9.23C70.57 9.23 72.42 9.09 72.42 7.36C72.42 6.09 71.23 5.57 69.96 5.57ZM68.19 8.97L68.19 8.58C68.19 7.29 68.54 5.81 69.83 5.81C70.71 5.81 71.06 6.48 71.06 7.36C71.06 8.75 70.07 8.97 68.68 8.97ZM84.76 10.64L84.67 10.64L82.57 3.42L83.61 3.42L83.61 3.19L79.97 3.19L79.97 3.42L80.96 3.42L81.70 5.82L80.12 10.64L80.04 10.64L77.94 3.42L78.97 3.42L78.97 3.19L75.33 3.19L75.33 3.42L76.33 3.42L79.16 12.57L79.20 12.57C79.72 12.57 79.86 12.21 80.02 11.72L81.84 6.27L83.79 12.57L83.83 12.57C84.35 12.57 84.49 12.21 84.66 11.72L86.86 5.12C87.21 4.10 87.58 3.42 88.66 3.42L88.66 3.19L84.52 3.19L84.52 3.42L84.76 3.42C85.71 3.42 86.67 3.47 86.67 4.42C86.67 4.65 86.63 4.96 86.55 5.19ZM91.27 5.57C89.22 5.57 88.14 7.03 88.14 9.07C88.14 11.09 89.10 12.57 91.11 12.57C92.54 12.57 93.44 11.62 93.73 10.30L93.48 10.28C93.23 11.30 92.58 12.18 91.43 12.18C90.03 12.18 89.50 11.03 89.50 9.63L89.50 9.23L90.16 9.23C91.88 9.23 93.73 9.09 93.73 7.36C93.73 6.09 92.54 5.57 91.27 5.57ZM89.50 8.97L89.50 8.58C89.50 7.29 89.85 5.81 91.14 5.81C92.02 5.81 92.37 6.48 92.37 7.36C92.37 8.75 91.38 8.97 89.99 8.97ZM96.96 2.45C96.31 2.59 95.69 2.63 95.02 2.63L94.72 2.63L94.72 2.84L95.72 2.84L95.72 12.08L94.79 12.08L94.79 12.29L96.96 12.29L96.96 11.42L97.05 11.42C97.40 12.17 98.07 12.57 98.88 12.57C100.76 12.57 101.46 10.91 101.46 9.03C101.46 7.24 100.77 5.57 98.98 5.57C98.03 5.57 97.37 6.22 97.05 7.13L96.96 7.13ZM96.94 9.06C96.94 7.88 97.47 5.96 98.64 5.96C99.96 5.96 100.10 7.71 100.10 9.03C100.10 10.37 100.02 12.18 98.67 12.18C97.38 12.18 96.94 10.85 96.94 9.56ZM105.74 5.57C104.50 5.57 103.33 6.26 103.33 7.50C103.33 9.74 107.27 9.30 107.27 10.98C107.27 12.04 106.30 12.29 105.24 12.29C103.87 12.29 103.38 11.58 103.38 11.13C103.38 11.05 103.45 11.00 103.50 11.00C103.57 11.00 103.61 11.05 103.63 11.13C103.67 11.33 103.88 11.49 104.19 11.49C104.61 11.49 104.86 11.14 104.86 10.74C104.86 10.32 104.50 10.00 104.08 10.00C103.52 10.00 103.11 10.43 103.11 10.99C103.11 12.14 104.26 12.57 105.46 12.57C106.95 12.57 108.16 11.98 108.16 10.50C108.16 8.26 104.23 8.71 104.23 7.03C104.23 6.19 105.13 5.85 105.97 5.85C107.25 5.85 107.60 6.45 107.60 6.87C107.60 6.96 107.53 7 107.48 7C107.41 7 107.37 6.96 107.35 6.87C107.31 6.68 107.10 6.51 106.79 6.51C106.37 6.51 106.12 6.86 106.12 7.27C106.12 7.69 106.48 8.01 106.90 8.01C107.46 8.01 107.87 7.57 107.87 7.01C107.87 5.91 106.85 5.57 105.74 5.57ZM111.65 5.67C110.99 5.81 110.38 5.85 109.70 5.85L109.41 5.85L109.41 6.06L110.40 6.06L110.40 12.08L109.48 12.08L109.48 12.29L112.57 12.29L112.57 12.08L111.65 12.08ZM110.17 3.74C110.17 4.20 110.52 4.55 110.98 4.55C111.44 4.55 111.80 4.20 111.80 3.74C111.80 3.28 111.44 2.91 110.98 2.91C110.52 2.91 110.17 3.28 110.17 3.74ZM115.77 6.06L117.46 6.06L117.46 5.85L115.77 5.85L115.77 4.00L115.58 4.00C115.37 5.12 114.76 5.85 113.62 5.85L113.53 5.85L113.53 6.06L114.52 6.06L114.52 10.51C114.52 11.72 114.63 12.57 115.84 12.57C116.68 12.57 117.28 11.77 117.59 10.99L117.36 10.91C117.15 11.40 116.68 12.19 116.14 12.19C115.77 12.19 115.77 11.77 115.77 10.82ZM121.51 5.57C119.46 5.57 118.38 7.03 118.38 9.07C118.38 11.09 119.34 12.57 121.35 12.57C122.78 12.57 123.68 11.62 123.97 10.30L123.72 10.28C123.47 11.30 122.82 12.18 121.67 12.18C120.27 12.18 119.74 11.03 119.74 9.63L119.74 9.23L120.40 9.23C122.12 9.23 123.97 9.09 123.97 7.36C123.97 6.09 122.78 5.57 121.51 5.57ZM119.74 8.97L119.74 8.58C119.74 7.29 120.09 5.81 121.38 5.81C122.26 5.81 122.61 6.48 122.61 7.36C122.61 8.75 121.62 8.97 120.23 8.97Z"></path></g><!----><g data-v-423bf9ae="" id="ed31205e-64c5-4616-9cec-c87aeea25719" transform="matrix(3.103448275862069,0,0,3.103448275862069,315.8448135441747,-4.155172413793103)" stroke="none" fill="white"><path d="M30.5 16c0-7.995-6.505-14.5-14.5-14.5S1.5 8.005 1.5 16c0 4.26 1.858 8.277 5.094 11.02a14.185 14.185 0 0 0 3.935 2.403c1.226.505 2.496.833 3.766.973.532.069 1.105.104 1.705.104.488 0 .989-.027 1.531-.083h.001c.403-.042.803-.107 1.199-.184a14.156 14.156 0 0 0 1.785-.458c.064-.021.127-.049.191-.071.255-.089.51-.179.76-.282h.002c.481-.195.944-.424 1.397-.668a14.14 14.14 0 0 0 1.499-.918c.299-.212.591-.437.873-.672l.001-.001A14.431 14.431 0 0 0 30.5 16zm-14.578-1.165l4.857 1.532v12.246l-.136.05c-.391.145-.791.262-1.194.37V16.994a.5.5 0 0 0-1 0v12.253c-.339.063-.676.139-1.021.175-.358.037-.679.039-1.009.049V16a.5.5 0 0 0-1 0v13.472c-.334-.015-.671-.027-.98-.066l-.025-.002c-.328-.036-.653-.111-.979-.173V16.994a.5.5 0 0 0-1 0v12.008c-.362-.1-.722-.206-1.078-.338l-.138-.051v-12.25l4.703-1.528zm8.498 11.699c-.121.098-.245.191-.369.285-.111.083-.219.168-.333.248-.163.114-.332.22-.5.327-.112.071-.222.147-.337.215-.187.11-.379.211-.57.313-.103.054-.203.114-.308.166-.073.036-.149.066-.223.101v-7.634l2.64.834v5.145zm-14.2 1.652c-.087-.041-.177-.076-.262-.119-.101-.051-.198-.11-.298-.163-.208-.111-.416-.221-.618-.344-.115-.069-.225-.147-.338-.221-.181-.117-.362-.233-.539-.36-.121-.087-.237-.182-.355-.273-.131-.101-.262-.202-.39-.309v-5.015l2.8-.906v7.71zm15.2-2.547V21.02a.501.501 0 0 0-.35-.477l-3.291-1.04V16a.501.501 0 0 0-.35-.477l-5.01-1.58V7a.5.5 0 0 0-1 0v6.947l-4.854 1.578a.498.498 0 0 0-.345.475v3.427l-3.454 1.118a.499.499 0 0 0-.346.475v4.46A13.41 13.41 0 0 1 2.5 16C2.5 8.556 8.556 2.5 16 2.5S29.5 8.556 29.5 16c0 3.661-1.482 7.108-4.08 9.639z"></path><path d="M22.261 8.849a1.066 1.066 0 0 1-.273-.842l.088-.515c.046-.271-.115-.388-.358-.26l-.462.243a1.068 1.068 0 0 1-.885 0l-.462-.243c-.243-.128-.404-.011-.358.26l.088.515c.046.271-.077.65-.273.842l-.374.364c-.197.192-.135.381.137.421l.517.075c.272.04.594.273.716.52l.231.468c.122.247.321.247.442 0l.231-.468c.122-.247.444-.48.716-.52l.517-.075c.272-.04.333-.229.137-.421l-.375-.364zM26.676 14.475l-.292-.432a1.07 1.07 0 0 1-.098-.88l.19-.486c.1-.256-.034-.403-.298-.327l-.501.145a1.068 1.068 0 0 1-.867-.179l-.403-.331c-.213-.175-.394-.092-.403.182l-.018.522a1.067 1.067 0 0 1-.438.769l-.44.281c-.231.148-.209.346.049.44l.49.178c.259.094.527.388.597.654l.131.505c.07.266.265.307.434.089l.321-.412c.169-.217.532-.381.806-.365l.521.031c.274.016.373-.157.219-.384zM12.297 8.849a1.066 1.066 0 0 1-.273-.842l.088-.515c.046-.271-.115-.388-.358-.26l-.462.243a1.068 1.068 0 0 1-.885 0l-.463-.243c-.243-.128-.404-.01-.358.261l.088.515c.046.271-.077.65-.273.842l-.374.363c-.196.192-.135.382.137.421l.517.075c.272.04.594.273.716.52l.231.468c.122.247.321.247.442 0l.231-.468c.122-.247.444-.48.716-.52l.517-.075c.272-.04.333-.229.137-.421l-.374-.364zM8.555 13.739l-.44-.281a1.074 1.074 0 0 1-.438-.769l-.017-.522c-.009-.274-.19-.357-.403-.182l-.403.331a1.068 1.068 0 0 1-.867.179l-.502-.145c-.264-.076-.398.071-.298.327l.19.486c.1.256.056.652-.098.88l-.292.432c-.154.228-.056.401.219.385l.521-.031c.274-.016.637.148.806.365l.321.412c.169.217.364.177.434-.089l.131-.505c.07-.266.338-.561.597-.654l.49-.178c.259-.095.281-.292.049-.441z"></path></g><!----></svg>